# xmcd CD database file
#
# Track frame offsets:
#	150
#	13765
#	26450
#	40162
#	55572
#	65780
#	79277
#	91132
#	106427
#	118022
#	131247
#	144675
#	162390
#	177410
#	190405
#
# Disc length: 2669 seconds
#
# Revision: 0
# Processed by: cddbd v1.4PL0 Copyright (c) Steve Scherf et al.
# Submitted via: CDex 1.50beta9
#
DISCID=d50a6b0f
DTITLE=Various Artist - Los Años Maravillosos del Bolero Cubano CD2
DYEAR=1999
DGENRE=Salsa
TTITLE0=Usted - Orquesta Almendra
TTITLE1=Pensando En Ti - Orquesta Aragón
TTITLE2=Contigo En La Distancia - Viola Ramirez y La Orquesta Riverside
TTITLE3=Dulce Desengaño - Beny Moré
TTITLE4=Que Sientes Tu - Trio de Servando Díaz
TTITLE5=Serenata Tropical - Mamolo Torriente y Los Hermanos Lago
TTITLE6=Yo Te Perdono - René Cabel y La Orquesta Panamericana
TTITLE7=Tu Me Sabes Comprender - Beny Moré
TTITLE8=Una Noche - Barbarito Diez
TTITLE9=Para Sellar Nuestro Amor - Tito Gomez y La Orquesta Riverside
TTITLE10=Te Recuerdo En El Alma - Conjunto Roberto Faz
TTITLE11=Acuerdate - René Cabel
TTITLE12=Soy Feliz - Viola Ramirez
TTITLE13=Cara De Muñeca - Conjunto Roberto Faz
TTITLE14=Confidencia - Carlos Salas
EXTD=YEAR: 1999
EXTT0=
EXTT1=
EXTT2=
EXTT3=
EXTT4=
EXTT5=
EXTT6=
EXTT7=
EXTT8=
EXTT9=
EXTT10=
EXTT11=
EXTT12=
EXTT13=
EXTT14=
PLAYORDER=
